# xmcd
#
# Track frame offsets: 
#        150
#        19314
#        36963
#        53426
#        69835
#        88029
#        104882
#        121261
#        139988
#        156788
#
# Disc length: 2330 seconds
#
# Revision: 0
# Processed by: cddbd v1.5.2PL0 Copyright (c) Steve Scherf et al.
# Submitted via: ExactAudioCopy v0.99pb5
#
DISCID=8509180a
DTITLE=ไชยา มิตรชัย - เพลงประกอบละครเทพบุตรขนตางอน
DYEAR=1900
DGENRE=ลูกทุ่ง
TTITLE0=อยากบอกรักเธอ
TTITLE1=ขอเกี่ยวแล้วกัน
TTITLE2=อ้อมแขนคนธรรมดา
TTITLE3=สายไปหรือเปล่า
TTITLE4=ไม่กล้าอีกแล้ว
TTITLE5=ขอให้บอก
TTITLE6=สักวันคงเข้าใจ
TTITLE7=ไม่รู้ฟ้าเมตตาหรือเปล่า
TTITLE8=ทำดีไม่ได้ดี
TTITLE9=บ้านทุ่งหรรษา
EXTD=
EXTT0=
EXTT1=
EXTT2=
EXTT3=
EXTT4=
EXTT5=
EXTT6=
EXTT7=
EXTT8=
EXTT9=
PLAYORDER=
